<?xml version="1.0" standalone="no"?>
<!DOCTYPE svg PUBLIC "-//W3C//DTD SVG 20010904//EN"
 "http://www.w3.org/TR/2001/REC-SVG-20010904/DTD/svg10.dtd">
<svg version="1.0" xmlns="http://www.w3.org/2000/svg"
 width="200.000000pt" height="200.000000pt" viewBox="0 0 200.000000 200.000000"
 preserveAspectRatio="xMidYMid meet">
<metadata>
Created by potrace 1.10, written by Peter Selinger 2001-2011
</metadata>
<g transform="translate(0.000000,200.000000) scale(0.100000,-0.100000)"
fill="#000000" stroke="none">
<path d="M889 1265 c-156 -167 -284 -310 -284 -316 0 -6 28 -36 61 -65 l62
-54 254 272 c140 150 269 290 288 311 l33 38 -59 60 c-32 32 -61 59 -65 59 -4
0 -135 -137 -290 -305z m324 220 c15 -13 27 -30 27 -37 0 -7 -22 -36 -48 -63
-26 -28 -137 -147 -247 -265 -109 -118 -205 -219 -213 -224 -9 -5 -23 1 -43
20 -16 15 -29 31 -29 35 0 10 70 87 305 340 94 101 177 191 185 200 20 23 30
22 63 -6z"/>
<path d="M978 850 l-287 -309 68 -60 67 -60 225 241 c123 133 253 272 288 310
l64 69 -59 60 c-32 32 -63 59 -69 58 -5 0 -139 -139 -297 -309z m335 225 c15
-14 27 -30 27 -36 0 -6 -33 -45 -72 -87 -99 -105 -323 -345 -382 -409 -27 -29
-56 -53 -66 -53 -22 0 -64 45 -58 62 3 7 102 116 219 242 118 126 229 246 248
267 19 22 39 39 45 39 6 0 24 -11 39 -25z"/>
</g>
</svg>
